# xmcd CD database file
#
# Track frame offsets:
#	150
#	15570
#	31319
#	44378
#	59462
#	73331
#	84690
#	99383
#	111907
#	123772
#	136983
#	149825
#	160646
#	176323
#	188999
#	202142
#	210688
#	224243
#
# Disc length: 3237 seconds
#
# Revision: 1
# Processed by: cddbd v1.5.2PL0 Copyright (c) Steve Scherf et al.
# Submitted via: CDex 1.78
#
DISCID=170ca312
DTITLE=Jennifer Lind - Cowboy State Of Mind
DYEAR=2009
DGENRE=Country
TTITLE0=Cowboy State Of Mind
TTITLE1=There's Gonna Be A Rodeo
TTITLE2=Nightsong
TTITLE3=Counting The Cars
TTITLE4=Coming Back Alone
TTITLE5=I Learned About Lovin' From You
TTITLE6=Riverbend
TTITLE7=Feed Lot Cowboy
TTITLE8=Fair And Tender Ladies
TTITLE9=Old Cowboy
TTITLE10=Cowboy Poetry
TTITLE11=Cowboy Lullaby
TTITLE12=Lovesong To The Moon
TTITLE13=Vapor Trails
TTITLE14=Cookee, Cowboy Fortuneteller
TTITLE15=A Raindrop
TTITLE16=Looking Back
TTITLE17=Last Go' Round (On The Merry-Go-Round)
EXTD=YEAR: 2009
EXTT0=
EXTT1=
EXTT2=
EXTT3=
EXTT4=
EXTT5=
EXTT6=
EXTT7=
EXTT8=
EXTT9=
EXTT10=
EXTT11=
EXTT12=
EXTT13=
EXTT14=
EXTT15=
EXTT16=
EXTT17=
PLAYORDER=
